<?xml version="1.0" encoding="UTF-8" standalone="no"?>
<!DOCTYPE svg PUBLIC "-//W3C//DTD SVG 1.1//EN"
 "http://www.w3.org/Graphics/SVG/1.1/DTD/svg11.dtd">
<!-- Generated by graphviz version 2.43.0 (0)
 -->
<!-- Title: G Pages: 1 -->
<svg width="932pt" height="782pt"
 viewBox="0.00 0.00 932.00 782.00" xmlns="http://www.w3.org/2000/svg" xmlns:xlink="http://www.w3.org/1999/xlink">
<g id="graph0" class="graph" transform="scale(1 1) rotate(0) translate(4 778)">
<title>G</title>
<polygon fill="white" stroke="transparent" points="-4,4 -4,-778 928,-778 928,4 -4,4"/>
<g id="clust1" class="cluster">
<title>cluster_root</title>
<g id="a_clust1"><a xlink:title="eventq_index=0&#10;full_system=false&#10;sim_quantum=0&#10;time_sync_enable=false&#10;time_sync_period=100000000000&#10;time_sync_spin_threshold=100000000">
<path fill="#bab6ae" stroke="#000000" d="M20,-8C20,-8 904,-8 904,-8 910,-8 916,-14 916,-20 916,-20 916,-754 916,-754 916,-760 910,-766 904,-766 904,-766 20,-766 20,-766 14,-766 8,-760 8,-754 8,-754 8,-20 8,-20 8,-14 14,-8 20,-8"/>
<text text-anchor="middle" x="462" y="-750.8" font-family="Arial" font-size="14.00" fill="#000000">root </text>
<text text-anchor="middle" x="462" y="-735.8" font-family="Arial" font-size="14.00" fill="#000000">: Root</text>
</a>
</g>
</g>
<g id="clust2" class="cluster">
<title>cluster_board</title>
<g id="a_clust2"><a xlink:title="auto_unlink_shared_backstore=false&#10;cache_line_size=64&#10;eventq_index=0&#10;exit_on_work_items=true&#10;init_param=0&#10;m5ops_base=0&#10;mem_mode=timing&#10;mem_ranges=0:8589934592&#10;memories=board.memory.mem_ctrl.dram&#10;mmap_using_noreserve=false&#10;multi_thread=false&#10;&#10;um_work_ids=16&#10;&#13;eadfile=&#10;&#13;edirect_paths=&#10;shadow_rom_ranges=&#10;shared_backstore=&#10;symbolfile=&#10;thermal_components=&#10;thermal_model=Null&#10;work_begin_ckpt_count=0&#10;work_begin_cpu_id_exit=&#45;1&#10;work_begin_exit_count=0&#10;work_cpus_ckpt_count=0&#10;work_end_ckpt_count=0&#10;work_end_exit_count=0&#10;work_item_id=&#45;1&#10;workload=board.workload">
<path fill="#e4e7eb" stroke="#000000" d="M28,-16C28,-16 896,-16 896,-16 902,-16 908,-22 908,-28 908,-28 908,-708 908,-708 908,-714 902,-720 896,-720 896,-720 28,-720 28,-720 22,-720 16,-714 16,-708 16,-708 16,-28 16,-28 16,-22 22,-16 28,-16"/>
<text text-anchor="middle" x="462" y="-704.8" font-family="Arial" font-size="14.00" fill="#000000">board </text>
<text text-anchor="middle" x="462" y="-689.8" font-family="Arial" font-size="14.00" fill="#000000">: SimpleBoard</text>
</a>
</g>
</g>
<g id="clust6" class="cluster">
<title>cluster_board_processor</title>
<g id="a_clust6"><a xlink:title="eventq_index=0&#10;thermal_domain=Null">
<path fill="#bab6ae" stroke="#000000" d="M284,-314C284,-314 888,-314 888,-314 894,-314 900,-320 900,-326 900,-326 900,-662 900,-662 900,-668 894,-674 888,-674 888,-674 284,-674 284,-674 278,-674 272,-668 272,-662 272,-662 272,-326 272,-326 272,-320 278,-314 284,-314"/>
<text text-anchor="middle" x="586" y="-658.8" font-family="Arial" font-size="14.00" fill="#000000">processor </text>
<text text-anchor="middle" x="586" y="-643.8" font-family="Arial" font-size="14.00" fill="#000000">: SimpleProcessor</text>
</a>
</g>
</g>
<g id="clust7" class="cluster">
<title>cluster_board_processor_cores</title>
<g id="a_clust7"><a xlink:title="eventq_index=0&#10;thermal_domain=Null">
<path fill="#9f9c95" stroke="#000000" d="M292,-322C292,-322 880,-322 880,-322 886,-322 892,-328 892,-334 892,-334 892,-616 892,-616 892,-622 886,-628 880,-628 880,-628 292,-628 292,-628 286,-628 280,-622 280,-616 280,-616 280,-334 280,-334 280,-328 286,-322 292,-322"/>
<text text-anchor="middle" x="586" y="-612.8" font-family="Arial" font-size="14.00" fill="#000000">cores </text>
<text text-anchor="middle" x="586" y="-597.8" font-family="Arial" font-size="14.00" fill="#000000">: SimpleCore</text>
</a>
</g>
</g>
<g id="clust8" class="cluster">
<title>cluster_board_processor_cores_core</title>
<g id="a_clust8"><a xlink:title="branchPred=board.processor.cores.core.branchPred&#10;checker=Null&#10;clk_domain=board.clk_domain&#10;cpu_id=0&#10;decodeCycleInput=true&#10;decodeInputBufferSize=3&#10;decodeInputWidth=2&#10;decodeToExecuteForwardDelay=1&#10;decoder=board.processor.cores.core.decoder&#10;do_checkpoint_insts=true&#10;do_statistics_insts=true&#10;enableIdling=true&#10;eventq_index=0&#10;executeAllowEarlyMemoryIssue=true&#10;executeBranchDelay=1&#10;executeCommitLimit=2&#10;executeCycleInput=true&#10;executeFuncUnits=board.processor.cores.core.executeFuncUnits&#10;executeInputBufferSize=7&#10;executeInputWidth=2&#10;executeIssueLimit=2&#10;executeLSQMaxStoreBufferStoresPerCycle=2&#10;executeLSQRequestsQueueSize=1&#10;executeLSQStoreBufferSize=5&#10;executeLSQTransfersQueueSize=2&#10;executeMaxAccessesInMemory=2&#10;executeMemoryCommitLimit=1&#10;executeMemoryIssueLimit=1&#10;executeMemoryWidth=0&#10;executeSetTraceTimeOnCommit=true&#10;executeSetTraceTimeOnIssue=false&#10;fetch1FetchLimit=1&#10;fetch1LineSnapWidth=0&#10;fetch1LineWidth=0&#10;fetch1ToFetch2BackwardDelay=1&#10;fetch1ToFetch2ForwardDelay=1&#10;fetch2CycleInput=true&#10;fetch2InputBufferSize=2&#10;fetch2ToDecodeForwardDelay=1&#10;function_trace=false&#10;function_trace_start=0&#10;interrupts=board.processor.cores.core.interrupts&#10;isa=board.processor.cores.core.isa&#10;max_insts_all_threads=0&#10;max_insts_any_thread=0&#10;mmu=board.processor.cores.core.mmu&#10;&#10;umThreads=1&#10;power_gating_on_idle=false&#10;power_model=&#10;power_state=board.processor.cores.core.power_state&#10;progress_interval=0&#10;pwr_gating_latency=300&#10;simpoint_start_insts=&#10;socket_id=0&#10;switched_out=false&#10;syscallRetryLatency=10000&#10;system=board&#10;threadPolicy=RoundRobin&#10;tracer=board.processor.cores.core.tracer&#10;workload=board.processor.cores.core.workload">
<path fill="#bbc6d9" stroke="#000000" d="M300,-330C300,-330 872,-330 872,-330 878,-330 884,-336 884,-342 884,-342 884,-570 884,-570 884,-576 878,-582 872,-582 872,-582 300,-582 300,-582 294,-582 288,-576 288,-570 288,-570 288,-342 288,-342 288,-336 294,-330 300,-330"/>
<text text-anchor="middle" x="586" y="-566.8" font-family="Arial" font-size="14.00" fill="#000000">core </text>
<text text-anchor="middle" x="586" y="-551.8" font-family="Arial" font-size="14.00" fill="#000000">: RiscvMinorCPU</text>
</a>
</g>
</g>
<g id="clust9" class="cluster">
<title>cluster_board_processor_cores_core_mmu</title>
<g id="a_clust9"><a xlink:title="dtb=board.processor.cores.core.mmu.dtb&#10;eventq_index=0&#10;itb=board.processor.cores.core.mmu.itb&#10;pma_checker=board.processor.cores.core.mmu.pma_checker&#10;pmp=board.processor.cores.core.mmu.pmp">
<path fill="#bab6ae" stroke="#000000" d="M512,-338C512,-338 864,-338 864,-338 870,-338 876,-344 876,-350 876,-350 876,-524 876,-524 876,-530 870,-536 864,-536 864,-536 512,-536 512,-536 506,-536 500,-530 500,-524 500,-524 500,-350 500,-350 500,-344 506,-338 512,-338"/>
<text text-anchor="middle" x="688" y="-520.8" font-family="Arial" font-size="14.00" fill="#000000">mmu </text>
<text text-anchor="middle" x="688" y="-505.8" font-family="Arial" font-size="14.00" fill="#000000">: RiscvMMU</text>
</a>
</g>
</g>
<g id="clust10" class="cluster">
<title>cluster_board_processor_cores_core_mmu_itb</title>
<g id="a_clust10"><a xlink:title="entry_type=instruction&#10;eventq_index=0&#10;&#10;ext_level=Null&#10;pma_checker=board.processor.cores.core.mmu.pma_checker&#10;pmp=board.processor.cores.core.mmu.pmp&#10;size=64&#10;walker=board.processor.cores.core.mmu.itb.walker">
<path fill="#9f9c95" stroke="#000000" d="M704,-346C704,-346 856,-346 856,-346 862,-346 868,-352 868,-358 868,-358 868,-478 868,-478 868,-484 862,-490 856,-490 856,-490 704,-490 704,-490 698,-490 692,-484 692,-478 692,-478 692,-358 692,-358 692,-352 698,-346 704,-346"/>
<text text-anchor="middle" x="780" y="-474.8" font-family="Arial" font-size="14.00" fill="#000000">itb </text>
<text text-anchor="middle" x="780" y="-459.8" font-family="Arial" font-size="14.00" fill="#000000">: RiscvTLB</text>
</a>
</g>
</g>
<g id="clust11" class="cluster">
<title>cluster_board_processor_cores_core_mmu_itb_walker</title>
<g id="a_clust11"><a xlink:title="clk_domain=board.clk_domain&#10;eventq_index=0&#10;&#10;um_squash_per_cycle=4&#10;pma_checker=board.processor.cores.core.mmu.pma_checker&#10;pmp=board.processor.cores.core.mmu.pmp&#10;power_model=&#10;power_state=board.processor.cores.core.mmu.itb.walker.power_state&#10;system=board">
<path fill="#84827c" stroke="#000000" d="M712,-354C712,-354 848,-354 848,-354 854,-354 860,-360 860,-366 860,-366 860,-432 860,-432 860,-438 854,-444 848,-444 848,-444 712,-444 712,-444 706,-444 700,-438 700,-432 700,-432 700,-366 700,-366 700,-360 706,-354 712,-354"/>
<text text-anchor="middle" x="780" y="-428.8" font-family="Arial" font-size="14.00" fill="#000000">walker </text>
<text text-anchor="middle" x="780" y="-413.8" font-family="Arial" font-size="14.00" fill="#000000">: RiscvPagetableWalker</text>
</a>
</g>
</g>
<g id="clust13" class="cluster">
<title>cluster_board_processor_cores_core_mmu_dtb</title>
<g id="a_clust13"><a xlink:title="entry_type=data&#10;eventq_index=0&#10;&#10;ext_level=Null&#10;pma_checker=board.processor.cores.core.mmu.pma_checker&#10;pmp=board.processor.cores.core.mmu.pmp&#10;size=64&#10;walker=board.processor.cores.core.mmu.dtb.walker">
<path fill="#9f9c95" stroke="#000000" d="M520,-346C520,-346 672,-346 672,-346 678,-346 684,-352 684,-358 684,-358 684,-478 684,-478 684,-484 678,-490 672,-490 672,-490 520,-490 520,-490 514,-490 508,-484 508,-478 508,-478 508,-358 508,-358 508,-352 514,-346 520,-346"/>
<text text-anchor="middle" x="596" y="-474.8" font-family="Arial" font-size="14.00" fill="#000000">dtb </text>
<text text-anchor="middle" x="596" y="-459.8" font-family="Arial" font-size="14.00" fill="#000000">: RiscvTLB</text>
</a>
</g>
</g>
<g id="clust14" class="cluster">
<title>cluster_board_processor_cores_core_mmu_dtb_walker</title>
<g id="a_clust14"><a xlink:title="clk_domain=board.clk_domain&#10;eventq_index=0&#10;&#10;um_squash_per_cycle=4&#10;pma_checker=board.processor.cores.core.mmu.pma_checker&#10;pmp=board.processor.cores.core.mmu.pmp&#10;power_model=&#10;power_state=board.processor.cores.core.mmu.dtb.walker.power_state&#10;system=board">
<path fill="#84827c" stroke="#000000" d="M528,-354C528,-354 664,-354 664,-354 670,-354 676,-360 676,-366 676,-366 676,-432 676,-432 676,-438 670,-444 664,-444 664,-444 528,-444 528,-444 522,-444 516,-438 516,-432 516,-432 516,-366 516,-366 516,-360 522,-354 528,-354"/>
<text text-anchor="middle" x="596" y="-428.8" font-family="Arial" font-size="14.00" fill="#000000">walker </text>
<text text-anchor="middle" x="596" y="-413.8" font-family="Arial" font-size="14.00" fill="#000000">: RiscvPagetableWalker</text>
</a>
</g>
</g>
<g id="clust134" class="cluster">
<title>cluster_board_memory</title>
<g id="a_clust134"><a xlink:title="eventq_index=0&#10;thermal_domain=Null">
<path fill="#bab6ae" stroke="#000000" d="M136,-346C136,-346 252,-346 252,-346 258,-346 264,-352 264,-358 264,-358 264,-478 264,-478 264,-484 258,-490 252,-490 252,-490 136,-490 136,-490 130,-490 124,-484 124,-478 124,-478 124,-358 124,-358 124,-352 130,-346 136,-346"/>
<text text-anchor="middle" x="194" y="-474.8" font-family="Arial" font-size="14.00" fill="#000000">memory </text>
<text text-anchor="middle" x="194" y="-459.8" font-family="Arial" font-size="14.00" fill="#000000">: ChanneledMemory</text>
</a>
</g>
</g>
<g id="clust135" class="cluster">
<title>cluster_board_memory_mem_ctrl</title>
<g id="a_clust135"><a xlink:title="clk_domain=board.clk_domain&#10;command_window=10000&#10;disable_sanity_check=false&#10;dram=board.memory.mem_ctrl.dram&#10;eventq_index=0&#10;mem_sched_policy=frfcfs&#10;min_reads_per_switch=16&#10;min_writes_per_switch=16&#10;power_model=&#10;power_state=board.memory.mem_ctrl.power_state&#10;qos_policy=Null&#10;qos_priorities=1&#10;qos_priority_escalation=false&#10;qos_q_policy=fifo&#10;qos_requestors= &#160;&#160;&#160;&#160;&#160;&#160;&#160;&#160;&#160;&#160;&#160;&#160;&#160;&#160;&#10;qos_syncro_scheduler=false&#10;qos_turnaround_policy=Null&#10;static_backend_latency=10000&#10;static_frontend_latency=10000&#10;system=board&#10;write_high_thresh_perc=85&#10;write_low_thresh_perc=50">
<path fill="#9f9c95" stroke="#000000" d="M191,-354C191,-354 244,-354 244,-354 250,-354 256,-360 256,-366 256,-366 256,-432 256,-432 256,-438 250,-444 244,-444 244,-444 191,-444 191,-444 185,-444 179,-438 179,-432 179,-432 179,-366 179,-366 179,-360 185,-354 191,-354"/>
<text text-anchor="middle" x="217.5" y="-428.8" font-family="Arial" font-size="14.00" fill="#000000">mem_ctrl </text>
<text text-anchor="middle" x="217.5" y="-413.8" font-family="Arial" font-size="14.00" fill="#000000">: MemCtrl</text>
</a>
</g>
</g>
<g id="clust139" class="cluster">
<title>cluster_board_cache_hierarchy</title>
<g id="a_clust139"><a xlink:title="eventq_index=0&#10;thermal_domain=Null">
<path fill="#bab6ae" stroke="#000000" d="M130,-24C130,-24 458,-24 458,-24 464,-24 470,-30 470,-36 470,-36 470,-294 470,-294 470,-300 464,-306 458,-306 458,-306 130,-306 130,-306 124,-306 118,-300 118,-294 118,-294 118,-36 118,-36 118,-30 124,-24 130,-24"/>
<text text-anchor="middle" x="294" y="-290.8" font-family="Arial" font-size="14.00" fill="#000000">cache_hierarchy </text>
<text text-anchor="middle" x="294" y="-275.8" font-family="Arial" font-size="14.00" fill="#000000">: NoCache</text>
</a>
</g>
</g>
<g id="clust140" class="cluster">
<title>cluster_board_cache_hierarchy_membus</title>
<g id="a_clust140"><a xlink:title="clk_domain=board.clk_domain&#10;eventq_index=0&#10;forward_latency=4&#10;frontend_latency=3&#10;header_latency=1&#10;max_outstanding_snoops=512&#10;max_routing_table_size=2048&#10;point_of_coherency=true&#10;point_of_unification=true&#10;power_model=&#10;power_state=board.cache_hierarchy.membus.power_state&#10;&#13;esponse_latency=2&#10;snoop_filter=board.cache_hierarchy.membus.snoop_filter&#10;snoop_response_latency=4&#10;system=board&#10;use_default_range=false&#10;width=64">
<path fill="#6f798c" stroke="#000000" d="M138,-32C138,-32 450,-32 450,-32 456,-32 462,-38 462,-44 462,-44 462,-248 462,-248 462,-254 456,-260 450,-260 450,-260 138,-260 138,-260 132,-260 126,-254 126,-248 126,-248 126,-44 126,-44 126,-38 132,-32 138,-32"/>
<text text-anchor="middle" x="294" y="-244.8" font-family="Arial" font-size="14.00" fill="#000000">membus </text>
<text text-anchor="middle" x="294" y="-229.8" font-family="Arial" font-size="14.00" fill="#000000">: SystemXBar</text>
</a>
</g>
</g>
<g id="clust143" class="cluster">
<title>cluster_board_cache_hierarchy_membus_badaddr_responder</title>
<g id="a_clust143"><a xlink:title="clk_domain=board.clk_domain&#10;eventq_index=0&#10;fake_mem=false&#10;pio_addr=0&#10;pio_latency=100000&#10;pio_size=8&#10;power_model=&#10;power_state=board.cache_hierarchy.membus.badaddr_responder.power_state&#10;&#13;et_bad_addr=true&#10;&#13;et_data16=65535&#10;&#13;et_data32=4294967295&#10;&#13;et_data64=18446744073709551615&#10;&#13;et_data8=255&#10;system=board&#10;update_data=false&#10;warn_access=">
<path fill="#c7a793" stroke="#000000" d="M146,-40C146,-40 260,-40 260,-40 266,-40 272,-46 272,-52 272,-52 272,-118 272,-118 272,-124 266,-130 260,-130 260,-130 146,-130 146,-130 140,-130 134,-124 134,-118 134,-118 134,-52 134,-52 134,-46 140,-40 146,-40"/>
<text text-anchor="middle" x="203" y="-114.8" font-family="Arial" font-size="14.00" fill="#000000">badaddr_responder </text>
<text text-anchor="middle" x="203" y="-99.8" font-family="Arial" font-size="14.00" fill="#000000">: BadAddr</text>
</a>
</g>
</g>
<!-- board_system_port -->
<g id="node1" class="node">
<title>board_system_port</title>
<path fill="#b6b8bc" stroke="#000000" d="M103.5,-398C103.5,-398 36.5,-398 36.5,-398 30.5,-398 24.5,-392 24.5,-386 24.5,-386 24.5,-374 24.5,-374 24.5,-368 30.5,-362 36.5,-362 36.5,-362 103.5,-362 103.5,-362 109.5,-362 115.5,-368 115.5,-374 115.5,-374 115.5,-386 115.5,-386 115.5,-392 109.5,-398 103.5,-398"/>
<text text-anchor="middle" x="70" y="-376.3" font-family="Arial" font-size="14.00" fill="#000000">system_port</text>
</g>
<!-- board_cache_hierarchy_membus_cpu_side_ports -->
<g id="node7" class="node">
<title>board_cache_hierarchy_membus_cpu_side_ports</title>
<path fill="#586070" stroke="#000000" d="M442,-214C442,-214 358,-214 358,-214 352,-214 346,-208 346,-202 346,-202 346,-190 346,-190 346,-184 352,-178 358,-178 358,-178 442,-178 442,-178 448,-178 454,-184 454,-190 454,-190 454,-202 454,-202 454,-208 448,-214 442,-214"/>
<text text-anchor="middle" x="400" y="-192.3" font-family="Arial" font-size="14.00" fill="#000000">cpu_side_ports</text>
</g>
<!-- board_system_port&#45;&gt;board_cache_hierarchy_membus_cpu_side_ports -->
<g id="edge1" class="edge">
<title>board_system_port&#45;&gt;board_cache_hierarchy_membus_cpu_side_ports</title>
<path fill="none" stroke="black" d="M90.54,-361.85C110.65,-346.19 142.86,-324.01 175,-314 192.21,-308.64 321.62,-315.39 337,-306 366.81,-287.8 383.95,-249.86 392.62,-223.9"/>
<polygon fill="black" stroke="black" points="395.99,-224.87 395.64,-214.28 389.31,-222.77 395.99,-224.87"/>
</g>
<!-- board_processor_cores_core_icache_port -->
<g id="node2" class="node">
<title>board_processor_cores_core_icache_port</title>
<path fill="#959ead" stroke="#000000" d="M480,-398C480,-398 418,-398 418,-398 412,-398 406,-392 406,-386 406,-386 406,-374 406,-374 406,-368 412,-362 418,-362 418,-362 480,-362 480,-362 486,-362 492,-368 492,-374 492,-374 492,-386 492,-386 492,-392 486,-398 480,-398"/>
<text text-anchor="middle" x="449" y="-376.3" font-family="Arial" font-size="14.00" fill="#000000">icache_port</text>
</g>
<!-- board_processor_cores_core_icache_port&#45;&gt;board_cache_hierarchy_membus_cpu_side_ports -->
<g id="edge2" class="edge">
<title>board_processor_cores_core_icache_port&#45;&gt;board_cache_hierarchy_membus_cpu_side_ports</title>
<path fill="none" stroke="black" d="M444.39,-361.88C435.85,-330.17 417.52,-262.09 407.29,-224.08"/>
<polygon fill="black" stroke="black" points="410.61,-222.96 404.63,-214.21 403.85,-224.78 410.61,-222.96"/>
</g>
<!-- board_processor_cores_core_dcache_port -->
<g id="node3" class="node">
<title>board_processor_cores_core_dcache_port</title>
<path fill="#959ead" stroke="#000000" d="M375.5,-398C375.5,-398 308.5,-398 308.5,-398 302.5,-398 296.5,-392 296.5,-386 296.5,-386 296.5,-374 296.5,-374 296.5,-368 302.5,-362 308.5,-362 308.5,-362 375.5,-362 375.5,-362 381.5,-362 387.5,-368 387.5,-374 387.5,-374 387.5,-386 387.5,-386 387.5,-392 381.5,-398 375.5,-398"/>
<text text-anchor="middle" x="342" y="-376.3" font-family="Arial" font-size="14.00" fill="#000000">dcache_port</text>
</g>
<!-- board_processor_cores_core_dcache_port&#45;&gt;board_cache_hierarchy_membus_cpu_side_ports -->
<g id="edge3" class="edge">
<title>board_processor_cores_core_dcache_port&#45;&gt;board_cache_hierarchy_membus_cpu_side_ports</title>
<path fill="none" stroke="black" d="M347.46,-361.88C357.56,-330.17 379.26,-262.09 391.37,-224.08"/>
<polygon fill="black" stroke="black" points="394.81,-224.8 394.52,-214.21 388.14,-222.67 394.81,-224.8"/>
</g>
<!-- board_processor_cores_core_mmu_itb_walker_port -->
<g id="node4" class="node">
<title>board_processor_cores_core_mmu_itb_walker_port</title>
<path fill="#6a6863" stroke="#000000" d="M750,-398C750,-398 720,-398 720,-398 714,-398 708,-392 708,-386 708,-386 708,-374 708,-374 708,-368 714,-362 720,-362 720,-362 750,-362 750,-362 756,-362 762,-368 762,-374 762,-374 762,-386 762,-386 762,-392 756,-398 750,-398"/>
<text text-anchor="middle" x="735" y="-376.3" font-family="Arial" font-size="14.00" fill="#000000">port</text>
</g>
<!-- board_processor_cores_core_mmu_itb_walker_port&#45;&gt;board_cache_hierarchy_membus_cpu_side_ports -->
<g id="edge4" class="edge">
<title>board_processor_cores_core_mmu_itb_walker_port&#45;&gt;board_cache_hierarchy_membus_cpu_side_ports</title>
<path fill="none" stroke="black" d="M723.92,-361.82C713.91,-347.43 698.01,-327.19 680,-314 613.47,-265.27 523.61,-232.39 463.83,-214.19"/>
<polygon fill="black" stroke="black" points="464.72,-210.81 454.13,-211.29 462.71,-217.51 464.72,-210.81"/>
</g>
<!-- board_processor_cores_core_mmu_dtb_walker_port -->
<g id="node5" class="node">
<title>board_processor_cores_core_mmu_dtb_walker_port</title>
<path fill="#6a6863" stroke="#000000" d="M566,-398C566,-398 536,-398 536,-398 530,-398 524,-392 524,-386 524,-386 524,-374 524,-374 524,-368 530,-362 536,-362 536,-362 566,-362 566,-362 572,-362 578,-368 578,-374 578,-374 578,-386 578,-386 578,-392 572,-398 566,-398"/>
<text text-anchor="middle" x="551" y="-376.3" font-family="Arial" font-size="14.00" fill="#000000">port</text>
</g>
<!-- board_processor_cores_core_mmu_dtb_walker_port&#45;&gt;board_cache_hierarchy_membus_cpu_side_ports -->
<g id="edge5" class="edge">
<title>board_processor_cores_core_mmu_dtb_walker_port&#45;&gt;board_cache_hierarchy_membus_cpu_side_ports</title>
<path fill="none" stroke="black" d="M544.75,-361.81C539.33,-348.16 530.7,-328.94 520,-314 493.9,-277.56 455.75,-242.6 429.51,-220.54"/>
<polygon fill="black" stroke="black" points="431.71,-217.82 421.78,-214.13 427.24,-223.21 431.71,-217.82"/>
</g>
<!-- board_memory_mem_ctrl_port -->
<g id="node6" class="node">
<title>board_memory_mem_ctrl_port</title>
<path fill="#7f7c77" stroke="#000000" d="M236,-398C236,-398 206,-398 206,-398 200,-398 194,-392 194,-386 194,-386 194,-374 194,-374 194,-368 200,-362 206,-362 206,-362 236,-362 236,-362 242,-362 248,-368 248,-374 248,-374 248,-386 248,-386 248,-392 242,-398 236,-398"/>
<text text-anchor="middle" x="221" y="-376.3" font-family="Arial" font-size="14.00" fill="#000000">port</text>
</g>
<!-- board_cache_hierarchy_membus_mem_side_ports -->
<g id="node8" class="node">
<title>board_cache_hierarchy_membus_mem_side_ports</title>
<path fill="#586070" stroke="#000000" d="M316,-214C316,-214 222,-214 222,-214 216,-214 210,-208 210,-202 210,-202 210,-190 210,-190 210,-184 216,-178 222,-178 222,-178 316,-178 316,-178 322,-178 328,-184 328,-190 328,-190 328,-202 328,-202 328,-208 322,-214 316,-214"/>
<text text-anchor="middle" x="269" y="-192.3" font-family="Arial" font-size="14.00" fill="#000000">mem_side_ports</text>
</g>
<!-- board_memory_mem_ctrl_port&#45;&gt;board_cache_hierarchy_membus_mem_side_ports -->
<g id="edge6" class="edge">
<title>board_memory_mem_ctrl_port&#45;&gt;board_cache_hierarchy_membus_mem_side_ports</title>
<path fill="none" stroke="black" d="M228.11,-352.03C238.13,-314.07 256.08,-245.98 264.46,-214.21"/>
<polygon fill="black" stroke="black" points="224.68,-351.32 225.52,-361.88 231.45,-353.1 224.68,-351.32"/>
</g>
<!-- board_cache_hierarchy_membus_default -->
<g id="node9" class="node">
<title>board_cache_hierarchy_membus_default</title>
<path fill="#586070" stroke="#000000" d="M179.5,-214C179.5,-214 146.5,-214 146.5,-214 140.5,-214 134.5,-208 134.5,-202 134.5,-202 134.5,-190 134.5,-190 134.5,-184 140.5,-178 146.5,-178 146.5,-178 179.5,-178 179.5,-178 185.5,-178 191.5,-184 191.5,-190 191.5,-190 191.5,-202 191.5,-202 191.5,-208 185.5,-214 179.5,-214"/>
<text text-anchor="middle" x="163" y="-192.3" font-family="Arial" font-size="14.00" fill="#000000">default</text>
</g>
<!-- board_cache_hierarchy_membus_badaddr_responder_pio -->
<g id="node10" class="node">
<title>board_cache_hierarchy_membus_badaddr_responder_pio</title>
<path fill="#9f8575" stroke="#000000" d="M184,-84C184,-84 154,-84 154,-84 148,-84 142,-78 142,-72 142,-72 142,-60 142,-60 142,-54 148,-48 154,-48 154,-48 184,-48 184,-48 190,-48 196,-54 196,-60 196,-60 196,-72 196,-72 196,-78 190,-84 184,-84"/>
<text text-anchor="middle" x="169" y="-62.3" font-family="Arial" font-size="14.00" fill="#000000">pio</text>
</g>
<!-- board_cache_hierarchy_membus_default&#45;&gt;board_cache_hierarchy_membus_badaddr_responder_pio -->
<g id="edge7" class="edge">
<title>board_cache_hierarchy_membus_default&#45;&gt;board_cache_hierarchy_membus_badaddr_responder_pio</title>
<path fill="none" stroke="black" d="M163.81,-177.74C164.81,-156.36 166.53,-119.69 167.71,-94.44"/>
<polygon fill="black" stroke="black" points="171.21,-94.55 168.18,-84.4 164.22,-94.22 171.21,-94.55"/>
</g>
</g>
</svg>
